<mxfile host="app.diagrams.net" agent="Mozilla/5.0 (Windows NT 10.0; Win64; x64) AppleWebKit/537.36 (KHTML, like Gecko) Chrome/136.0.0.0 Safari/537.36" version="27.1.0">
  <diagram name="Page-1" id="6UST2D7x8wtxbolrfvHj">
    <mxGraphModel dx="1426" dy="785" grid="1" gridSize="10" guides="1" tooltips="1" connect="1" arrows="1" fold="1" page="1" pageScale="1" pageWidth="850" pageHeight="1100" math="0" shadow="0">
      <root>
        <mxCell id="0" />
        <mxCell id="1" parent="0" />
        <mxCell id="b3LAL7DhlRRnD-ysIZNd-17" style="edgeStyle=orthogonalEdgeStyle;rounded=0;orthogonalLoop=1;jettySize=auto;html=1;" edge="1" parent="1" source="b3LAL7DhlRRnD-ysIZNd-1" target="b3LAL7DhlRRnD-ysIZNd-6">
          <mxGeometry relative="1" as="geometry" />
        </mxCell>
        <mxCell id="b3LAL7DhlRRnD-ysIZNd-20" value="1" style="edgeLabel;html=1;align=center;verticalAlign=middle;resizable=0;points=[];fontSize=20;" vertex="1" connectable="0" parent="b3LAL7DhlRRnD-ysIZNd-17">
          <mxGeometry x="-0.8476" relative="1" as="geometry">
            <mxPoint as="offset" />
          </mxGeometry>
        </mxCell>
        <mxCell id="b3LAL7DhlRRnD-ysIZNd-21" value="*" style="edgeLabel;html=1;align=center;verticalAlign=middle;resizable=0;points=[];fontSize=32;labelBackgroundColor=default;" vertex="1" connectable="0" parent="b3LAL7DhlRRnD-ysIZNd-17">
          <mxGeometry x="0.7524" y="1" relative="1" as="geometry">
            <mxPoint y="7" as="offset" />
          </mxGeometry>
        </mxCell>
        <mxCell id="b3LAL7DhlRRnD-ysIZNd-1" value="City" style="swimlane;fontStyle=0;childLayout=stackLayout;horizontal=1;startSize=30;horizontalStack=0;resizeParent=1;resizeParentMax=0;resizeLast=0;collapsible=1;marginBottom=0;whiteSpace=wrap;html=1;" vertex="1" parent="1">
          <mxGeometry x="100" y="100" width="140" height="80" as="geometry" />
        </mxCell>
        <mxCell id="b3LAL7DhlRRnD-ysIZNd-2" value="(PK)Long id&lt;br&gt;String name" style="text;strokeColor=none;fillColor=none;align=left;verticalAlign=middle;spacingLeft=4;spacingRight=4;overflow=hidden;points=[[0,0.5],[1,0.5]];portConstraint=eastwest;rotatable=0;whiteSpace=wrap;html=1;" vertex="1" parent="b3LAL7DhlRRnD-ysIZNd-1">
          <mxGeometry y="30" width="140" height="50" as="geometry" />
        </mxCell>
        <mxCell id="b3LAL7DhlRRnD-ysIZNd-22" style="edgeStyle=orthogonalEdgeStyle;rounded=0;orthogonalLoop=1;jettySize=auto;html=1;" edge="1" parent="1" source="b3LAL7DhlRRnD-ysIZNd-5" target="b3LAL7DhlRRnD-ysIZNd-9">
          <mxGeometry relative="1" as="geometry" />
        </mxCell>
        <mxCell id="b3LAL7DhlRRnD-ysIZNd-24" value="1" style="edgeLabel;html=1;align=center;verticalAlign=middle;resizable=0;points=[];fontSize=20;" vertex="1" connectable="0" parent="b3LAL7DhlRRnD-ysIZNd-22">
          <mxGeometry x="-0.8612" y="2" relative="1" as="geometry">
            <mxPoint x="-2" y="4" as="offset" />
          </mxGeometry>
        </mxCell>
        <mxCell id="b3LAL7DhlRRnD-ysIZNd-5" value="Client" style="swimlane;fontStyle=0;childLayout=stackLayout;horizontal=1;startSize=30;horizontalStack=0;resizeParent=1;resizeParentMax=0;resizeLast=0;collapsible=1;marginBottom=0;whiteSpace=wrap;html=1;" vertex="1" parent="1">
          <mxGeometry x="500" y="100" width="160" height="160" as="geometry" />
        </mxCell>
        <mxCell id="b3LAL7DhlRRnD-ysIZNd-6" value="(PK)UUID id&lt;br&gt;String name&lt;br&gt;String email&lt;br&gt;String phoneNumber&lt;br&gt;String address&lt;div&gt;(FK)City city&lt;/div&gt;&lt;div&gt;(FK)LegalCase legalCase&lt;/div&gt;" style="text;strokeColor=none;fillColor=none;align=left;verticalAlign=middle;spacingLeft=4;spacingRight=4;overflow=hidden;points=[[0,0.5],[1,0.5]];portConstraint=eastwest;rotatable=0;whiteSpace=wrap;html=1;" vertex="1" parent="b3LAL7DhlRRnD-ysIZNd-5">
          <mxGeometry y="30" width="160" height="130" as="geometry" />
        </mxCell>
        <mxCell id="b3LAL7DhlRRnD-ysIZNd-27" style="edgeStyle=orthogonalEdgeStyle;rounded=0;orthogonalLoop=1;jettySize=auto;html=1;" edge="1" parent="1" source="b3LAL7DhlRRnD-ysIZNd-9" target="b3LAL7DhlRRnD-ysIZNd-14">
          <mxGeometry relative="1" as="geometry" />
        </mxCell>
        <mxCell id="b3LAL7DhlRRnD-ysIZNd-9" value="Case" style="swimlane;fontStyle=0;childLayout=stackLayout;horizontal=1;startSize=30;horizontalStack=0;resizeParent=1;resizeParentMax=0;resizeLast=0;collapsible=1;marginBottom=0;whiteSpace=wrap;html=1;" vertex="1" parent="1">
          <mxGeometry x="500" y="500" width="150" height="140" as="geometry" />
        </mxCell>
        <mxCell id="b3LAL7DhlRRnD-ysIZNd-10" value="(PK)Long id;&lt;div&gt;String title;&lt;/div&gt;&lt;div&gt;String description;&lt;/div&gt;&lt;div&gt;String Status&lt;/div&gt;&lt;div&gt;LocalDateTime openDate&lt;/div&gt;&lt;div&gt;(FK)Client client&lt;/div&gt;" style="text;strokeColor=none;fillColor=none;align=left;verticalAlign=middle;spacingLeft=4;spacingRight=4;overflow=hidden;points=[[0,0.5],[1,0.5]];portConstraint=eastwest;rotatable=0;whiteSpace=wrap;html=1;" vertex="1" parent="b3LAL7DhlRRnD-ysIZNd-9">
          <mxGeometry y="30" width="150" height="110" as="geometry" />
        </mxCell>
        <mxCell id="b3LAL7DhlRRnD-ysIZNd-13" value="Document" style="swimlane;fontStyle=0;childLayout=stackLayout;horizontal=1;startSize=30;horizontalStack=0;resizeParent=1;resizeParentMax=0;resizeLast=0;collapsible=1;marginBottom=0;whiteSpace=wrap;html=1;" vertex="1" parent="1">
          <mxGeometry x="100" y="500" width="160" height="120" as="geometry" />
        </mxCell>
        <mxCell id="b3LAL7DhlRRnD-ysIZNd-14" value="String fileName;&lt;div&gt;String fileType;&lt;/div&gt;&lt;div&gt;String filePath;&lt;/div&gt;&lt;div&gt;LocalDateTime uplaodDate;&lt;/div&gt;&lt;div&gt;LegalCase legalCase&lt;/div&gt;" style="text;strokeColor=none;fillColor=none;align=left;verticalAlign=middle;spacingLeft=4;spacingRight=4;overflow=hidden;points=[[0,0.5],[1,0.5]];portConstraint=eastwest;rotatable=0;whiteSpace=wrap;html=1;" vertex="1" parent="b3LAL7DhlRRnD-ysIZNd-13">
          <mxGeometry y="30" width="160" height="90" as="geometry" />
        </mxCell>
        <mxCell id="b3LAL7DhlRRnD-ysIZNd-26" value="*" style="edgeLabel;html=1;align=center;verticalAlign=middle;resizable=0;points=[];fontSize=32;labelBackgroundColor=default;rotation=-90;" vertex="1" connectable="0" parent="1">
          <mxGeometry x="583" y="470" as="geometry" />
        </mxCell>
        <mxCell id="b3LAL7DhlRRnD-ysIZNd-29" value="1" style="edgeLabel;html=1;align=center;verticalAlign=middle;resizable=0;points=[];fontSize=20;" vertex="1" connectable="0" parent="1">
          <mxGeometry x="460" y="570" as="geometry" />
        </mxCell>
        <mxCell id="b3LAL7DhlRRnD-ysIZNd-30" value="*" style="edgeLabel;html=1;align=center;verticalAlign=middle;resizable=0;points=[];fontSize=32;labelBackgroundColor=default;" vertex="1" connectable="0" parent="1">
          <mxGeometry x="497" y="265" as="geometry">
            <mxPoint x="-203" y="317" as="offset" />
          </mxGeometry>
        </mxCell>
      </root>
    </mxGraphModel>
  </diagram>
</mxfile>
